<mxfile host="app.diagrams.net" agent="Mozilla/5.0 (Windows NT 10.0; Win64; x64) AppleWebKit/537.36 (KHTML, like Gecko) Chrome/132.0.0.0 Safari/537.36 Edg/132.0.0.0" version="26.0.6">
  <diagram name="Страница — 1" id="cyarw9ra7rP09_rxMTTy">
    <mxGraphModel dx="1083" dy="751" grid="0" gridSize="10" guides="1" tooltips="1" connect="1" arrows="1" fold="1" page="0" pageScale="1" pageWidth="827" pageHeight="1169" math="0" shadow="0">
      <root>
        <mxCell id="0" />
        <mxCell id="1" parent="0" />
        <mxCell id="q7Fk1c_CjEjD-WtsNxic-1" style="edgeStyle=orthogonalEdgeStyle;rounded=0;orthogonalLoop=1;jettySize=auto;html=1;" parent="1" edge="1">
          <mxGeometry relative="1" as="geometry">
            <mxPoint x="1627" y="562" as="sourcePoint" />
            <mxPoint x="1627" y="582" as="targetPoint" />
          </mxGeometry>
        </mxCell>
        <mxCell id="rmxaecEt271xwn91qUM3-8" style="edgeStyle=orthogonalEdgeStyle;rounded=0;orthogonalLoop=1;jettySize=auto;html=1;exitX=0.25;exitY=1;exitDx=0;exitDy=0;entryX=0.5;entryY=0;entryDx=0;entryDy=0;" edge="1" parent="1" source="rmxaecEt271xwn91qUM3-1" target="rmxaecEt271xwn91qUM3-2">
          <mxGeometry relative="1" as="geometry" />
        </mxCell>
        <mxCell id="rmxaecEt271xwn91qUM3-9" value="Читатель" style="edgeLabel;html=1;align=center;verticalAlign=middle;resizable=0;points=[];" vertex="1" connectable="0" parent="rmxaecEt271xwn91qUM3-8">
          <mxGeometry x="0.033" y="-3" relative="1" as="geometry">
            <mxPoint as="offset" />
          </mxGeometry>
        </mxCell>
        <mxCell id="rmxaecEt271xwn91qUM3-16" style="edgeStyle=orthogonalEdgeStyle;rounded=0;orthogonalLoop=1;jettySize=auto;html=1;exitX=0.75;exitY=1;exitDx=0;exitDy=0;entryX=0.5;entryY=0;entryDx=0;entryDy=0;" edge="1" parent="1" source="rmxaecEt271xwn91qUM3-1" target="rmxaecEt271xwn91qUM3-3">
          <mxGeometry relative="1" as="geometry" />
        </mxCell>
        <mxCell id="rmxaecEt271xwn91qUM3-17" value="Сотрудник" style="edgeLabel;html=1;align=center;verticalAlign=middle;resizable=0;points=[];" vertex="1" connectable="0" parent="rmxaecEt271xwn91qUM3-16">
          <mxGeometry x="0.0103" y="3" relative="1" as="geometry">
            <mxPoint y="1" as="offset" />
          </mxGeometry>
        </mxCell>
        <mxCell id="rmxaecEt271xwn91qUM3-1" value="Главная" style="rounded=0;whiteSpace=wrap;html=1;" vertex="1" parent="1">
          <mxGeometry x="1082" y="39" width="120" height="60" as="geometry" />
        </mxCell>
        <mxCell id="rmxaecEt271xwn91qUM3-10" style="edgeStyle=orthogonalEdgeStyle;rounded=0;orthogonalLoop=1;jettySize=auto;html=1;exitX=0.25;exitY=1;exitDx=0;exitDy=0;entryX=0.5;entryY=0;entryDx=0;entryDy=0;" edge="1" parent="1" source="rmxaecEt271xwn91qUM3-2" target="rmxaecEt271xwn91qUM3-5">
          <mxGeometry relative="1" as="geometry" />
        </mxCell>
        <mxCell id="rmxaecEt271xwn91qUM3-11" value="Регисттрация" style="edgeLabel;html=1;align=center;verticalAlign=middle;resizable=0;points=[];" vertex="1" connectable="0" parent="rmxaecEt271xwn91qUM3-10">
          <mxGeometry x="-0.0427" relative="1" as="geometry">
            <mxPoint as="offset" />
          </mxGeometry>
        </mxCell>
        <mxCell id="rmxaecEt271xwn91qUM3-12" style="edgeStyle=orthogonalEdgeStyle;rounded=0;orthogonalLoop=1;jettySize=auto;html=1;exitX=0.5;exitY=1;exitDx=0;exitDy=0;entryX=0.5;entryY=0;entryDx=0;entryDy=0;" edge="1" parent="1" source="rmxaecEt271xwn91qUM3-2" target="rmxaecEt271xwn91qUM3-6">
          <mxGeometry relative="1" as="geometry" />
        </mxCell>
        <mxCell id="rmxaecEt271xwn91qUM3-13" value="Поиск" style="edgeLabel;html=1;align=center;verticalAlign=middle;resizable=0;points=[];" vertex="1" connectable="0" parent="rmxaecEt271xwn91qUM3-12">
          <mxGeometry x="-0.0588" y="-1" relative="1" as="geometry">
            <mxPoint as="offset" />
          </mxGeometry>
        </mxCell>
        <mxCell id="rmxaecEt271xwn91qUM3-14" style="edgeStyle=orthogonalEdgeStyle;rounded=0;orthogonalLoop=1;jettySize=auto;html=1;exitX=0.75;exitY=1;exitDx=0;exitDy=0;entryX=0.5;entryY=0;entryDx=0;entryDy=0;" edge="1" parent="1" source="rmxaecEt271xwn91qUM3-2" target="rmxaecEt271xwn91qUM3-7">
          <mxGeometry relative="1" as="geometry" />
        </mxCell>
        <mxCell id="rmxaecEt271xwn91qUM3-15" value="Аренды" style="edgeLabel;html=1;align=center;verticalAlign=middle;resizable=0;points=[];" vertex="1" connectable="0" parent="rmxaecEt271xwn91qUM3-14">
          <mxGeometry x="0.0126" y="3" relative="1" as="geometry">
            <mxPoint y="1" as="offset" />
          </mxGeometry>
        </mxCell>
        <mxCell id="rmxaecEt271xwn91qUM3-40" style="edgeStyle=orthogonalEdgeStyle;rounded=0;orthogonalLoop=1;jettySize=auto;html=1;exitX=0.25;exitY=0;exitDx=0;exitDy=0;entryX=0;entryY=0.5;entryDx=0;entryDy=0;" edge="1" parent="1" source="rmxaecEt271xwn91qUM3-2" target="rmxaecEt271xwn91qUM3-1">
          <mxGeometry relative="1" as="geometry" />
        </mxCell>
        <mxCell id="rmxaecEt271xwn91qUM3-41" value="закрыть" style="edgeLabel;html=1;align=center;verticalAlign=middle;resizable=0;points=[];" vertex="1" connectable="0" parent="rmxaecEt271xwn91qUM3-40">
          <mxGeometry x="-0.6444" y="1" relative="1" as="geometry">
            <mxPoint as="offset" />
          </mxGeometry>
        </mxCell>
        <mxCell id="rmxaecEt271xwn91qUM3-2" value="Меню читателя" style="rounded=0;whiteSpace=wrap;html=1;" vertex="1" parent="1">
          <mxGeometry x="897" y="156" width="120" height="60" as="geometry" />
        </mxCell>
        <mxCell id="rmxaecEt271xwn91qUM3-23" style="edgeStyle=orthogonalEdgeStyle;rounded=0;orthogonalLoop=1;jettySize=auto;html=1;exitX=0;exitY=1;exitDx=0;exitDy=0;entryX=0.5;entryY=0;entryDx=0;entryDy=0;" edge="1" parent="1" source="rmxaecEt271xwn91qUM3-3" target="rmxaecEt271xwn91qUM3-19">
          <mxGeometry relative="1" as="geometry" />
        </mxCell>
        <mxCell id="rmxaecEt271xwn91qUM3-24" value="Новая аренда" style="edgeLabel;html=1;align=center;verticalAlign=middle;resizable=0;points=[];" vertex="1" connectable="0" parent="rmxaecEt271xwn91qUM3-23">
          <mxGeometry x="-0.026" y="2" relative="1" as="geometry">
            <mxPoint x="1" as="offset" />
          </mxGeometry>
        </mxCell>
        <mxCell id="rmxaecEt271xwn91qUM3-25" style="edgeStyle=orthogonalEdgeStyle;rounded=0;orthogonalLoop=1;jettySize=auto;html=1;exitX=0.25;exitY=1;exitDx=0;exitDy=0;" edge="1" parent="1" source="rmxaecEt271xwn91qUM3-3" target="rmxaecEt271xwn91qUM3-20">
          <mxGeometry relative="1" as="geometry">
            <Array as="points">
              <mxPoint x="1466" y="310" />
              <mxPoint x="1465" y="310" />
            </Array>
          </mxGeometry>
        </mxCell>
        <mxCell id="rmxaecEt271xwn91qUM3-26" value="Добавить книгу" style="edgeLabel;html=1;align=center;verticalAlign=middle;resizable=0;points=[];" vertex="1" connectable="0" parent="rmxaecEt271xwn91qUM3-25">
          <mxGeometry x="-0.2727" y="-1" relative="1" as="geometry">
            <mxPoint x="19" y="78" as="offset" />
          </mxGeometry>
        </mxCell>
        <mxCell id="rmxaecEt271xwn91qUM3-27" style="edgeStyle=orthogonalEdgeStyle;rounded=0;orthogonalLoop=1;jettySize=auto;html=1;exitX=0.967;exitY=1.004;exitDx=0;exitDy=0;entryX=0.412;entryY=-0.023;entryDx=0;entryDy=0;entryPerimeter=0;exitPerimeter=0;" edge="1" parent="1" source="rmxaecEt271xwn91qUM3-3">
          <mxGeometry relative="1" as="geometry">
            <mxPoint x="1535" y="217.38" as="sourcePoint" />
            <mxPoint x="1588.44" y="401.0000000000001" as="targetPoint" />
            <Array as="points">
              <mxPoint x="1552" y="309" />
              <mxPoint x="1588" y="309" />
              <mxPoint x="1588" y="391" />
              <mxPoint x="1588" y="391" />
            </Array>
          </mxGeometry>
        </mxCell>
        <mxCell id="rmxaecEt271xwn91qUM3-28" value="Редактор аренд" style="edgeLabel;html=1;align=center;verticalAlign=middle;resizable=0;points=[];" vertex="1" connectable="0" parent="rmxaecEt271xwn91qUM3-27">
          <mxGeometry y="1" relative="1" as="geometry">
            <mxPoint x="20" as="offset" />
          </mxGeometry>
        </mxCell>
        <mxCell id="rmxaecEt271xwn91qUM3-29" style="edgeStyle=orthogonalEdgeStyle;rounded=0;orthogonalLoop=1;jettySize=auto;html=1;exitX=1;exitY=1;exitDx=0;exitDy=0;entryX=0.5;entryY=0;entryDx=0;entryDy=0;" edge="1" parent="1" source="rmxaecEt271xwn91qUM3-3" target="rmxaecEt271xwn91qUM3-22">
          <mxGeometry relative="1" as="geometry">
            <Array as="points">
              <mxPoint x="1556" y="206" />
              <mxPoint x="1693" y="206" />
            </Array>
          </mxGeometry>
        </mxCell>
        <mxCell id="rmxaecEt271xwn91qUM3-30" value="Редактор читателя" style="edgeLabel;html=1;align=center;verticalAlign=middle;resizable=0;points=[];" vertex="1" connectable="0" parent="rmxaecEt271xwn91qUM3-29">
          <mxGeometry x="-0.2885" y="-3" relative="1" as="geometry">
            <mxPoint x="1" y="-3" as="offset" />
          </mxGeometry>
        </mxCell>
        <mxCell id="rmxaecEt271xwn91qUM3-50" style="edgeStyle=orthogonalEdgeStyle;rounded=0;orthogonalLoop=1;jettySize=auto;html=1;exitX=0.75;exitY=0;exitDx=0;exitDy=0;entryX=1;entryY=0.5;entryDx=0;entryDy=0;" edge="1" parent="1" source="rmxaecEt271xwn91qUM3-3" target="rmxaecEt271xwn91qUM3-1">
          <mxGeometry relative="1" as="geometry" />
        </mxCell>
        <mxCell id="rmxaecEt271xwn91qUM3-51" value="закрыть" style="edgeLabel;html=1;align=center;verticalAlign=middle;resizable=0;points=[];" vertex="1" connectable="0" parent="rmxaecEt271xwn91qUM3-50">
          <mxGeometry x="-0.7742" y="-1" relative="1" as="geometry">
            <mxPoint as="offset" />
          </mxGeometry>
        </mxCell>
        <mxCell id="rmxaecEt271xwn91qUM3-3" value="Меню сотрудника" style="rounded=0;whiteSpace=wrap;html=1;" vertex="1" parent="1">
          <mxGeometry x="1436" y="156" width="120" height="60" as="geometry" />
        </mxCell>
        <mxCell id="rmxaecEt271xwn91qUM3-5" value="Регистрация" style="rounded=0;whiteSpace=wrap;html=1;" vertex="1" parent="1">
          <mxGeometry x="754" y="267" width="120" height="60" as="geometry" />
        </mxCell>
        <mxCell id="rmxaecEt271xwn91qUM3-34" style="edgeStyle=orthogonalEdgeStyle;rounded=0;orthogonalLoop=1;jettySize=auto;html=1;exitX=0.5;exitY=1;exitDx=0;exitDy=0;" edge="1" parent="1" source="rmxaecEt271xwn91qUM3-6" target="rmxaecEt271xwn91qUM3-2">
          <mxGeometry relative="1" as="geometry">
            <mxPoint x="1200" y="166" as="targetPoint" />
            <Array as="points">
              <mxPoint x="957" y="347" />
              <mxPoint x="1201" y="347" />
              <mxPoint x="1201" y="166" />
            </Array>
          </mxGeometry>
        </mxCell>
        <mxCell id="rmxaecEt271xwn91qUM3-37" value="закрыть" style="edgeLabel;html=1;align=center;verticalAlign=middle;resizable=0;points=[];" vertex="1" connectable="0" parent="rmxaecEt271xwn91qUM3-34">
          <mxGeometry x="0.077" y="1" relative="1" as="geometry">
            <mxPoint as="offset" />
          </mxGeometry>
        </mxCell>
        <mxCell id="rmxaecEt271xwn91qUM3-6" value="Поиск" style="rounded=0;whiteSpace=wrap;html=1;" vertex="1" parent="1">
          <mxGeometry x="897" y="267" width="120" height="60" as="geometry" />
        </mxCell>
        <mxCell id="rmxaecEt271xwn91qUM3-31" style="edgeStyle=orthogonalEdgeStyle;rounded=0;orthogonalLoop=1;jettySize=auto;html=1;exitX=0.75;exitY=0;exitDx=0;exitDy=0;entryX=1;entryY=0.75;entryDx=0;entryDy=0;" edge="1" parent="1" source="rmxaecEt271xwn91qUM3-7" target="rmxaecEt271xwn91qUM3-2">
          <mxGeometry relative="1" as="geometry" />
        </mxCell>
        <mxCell id="rmxaecEt271xwn91qUM3-32" value="закрыть" style="edgeLabel;html=1;align=center;verticalAlign=middle;resizable=0;points=[];" vertex="1" connectable="0" parent="rmxaecEt271xwn91qUM3-31">
          <mxGeometry x="-0.6092" relative="1" as="geometry">
            <mxPoint as="offset" />
          </mxGeometry>
        </mxCell>
        <mxCell id="rmxaecEt271xwn91qUM3-7" value="Аренда Запрос" style="rounded=0;whiteSpace=wrap;html=1;" vertex="1" parent="1">
          <mxGeometry x="1035" y="267" width="120" height="60" as="geometry" />
        </mxCell>
        <mxCell id="rmxaecEt271xwn91qUM3-42" style="edgeStyle=orthogonalEdgeStyle;rounded=0;orthogonalLoop=1;jettySize=auto;html=1;exitX=0.25;exitY=0;exitDx=0;exitDy=0;entryX=0;entryY=0.5;entryDx=0;entryDy=0;" edge="1" parent="1" source="rmxaecEt271xwn91qUM3-19" target="rmxaecEt271xwn91qUM3-3">
          <mxGeometry relative="1" as="geometry" />
        </mxCell>
        <mxCell id="rmxaecEt271xwn91qUM3-43" value="закрыть" style="edgeLabel;html=1;align=center;verticalAlign=middle;resizable=0;points=[];" vertex="1" connectable="0" parent="rmxaecEt271xwn91qUM3-42">
          <mxGeometry x="-0.653" y="-1" relative="1" as="geometry">
            <mxPoint as="offset" />
          </mxGeometry>
        </mxCell>
        <mxCell id="rmxaecEt271xwn91qUM3-19" value="Аренда" style="rounded=0;whiteSpace=wrap;html=1;" vertex="1" parent="1">
          <mxGeometry x="1235" y="267" width="120" height="60" as="geometry" />
        </mxCell>
        <mxCell id="rmxaecEt271xwn91qUM3-20" value="Книга" style="rounded=0;whiteSpace=wrap;html=1;" vertex="1" parent="1">
          <mxGeometry x="1377" y="401" width="120" height="60" as="geometry" />
        </mxCell>
        <mxCell id="rmxaecEt271xwn91qUM3-46" style="edgeStyle=orthogonalEdgeStyle;rounded=0;orthogonalLoop=1;jettySize=auto;html=1;exitX=0.25;exitY=0;exitDx=0;exitDy=0;entryX=0.75;entryY=1;entryDx=0;entryDy=0;" edge="1" parent="1" source="rmxaecEt271xwn91qUM3-21" target="rmxaecEt271xwn91qUM3-3">
          <mxGeometry relative="1" as="geometry">
            <Array as="points">
              <mxPoint x="1538" y="401" />
              <mxPoint x="1538" y="309" />
              <mxPoint x="1525" y="309" />
              <mxPoint x="1525" y="216" />
            </Array>
          </mxGeometry>
        </mxCell>
        <mxCell id="rmxaecEt271xwn91qUM3-47" value="закрыть" style="edgeLabel;html=1;align=center;verticalAlign=middle;resizable=0;points=[];" vertex="1" connectable="0" parent="rmxaecEt271xwn91qUM3-46">
          <mxGeometry x="-0.3857" y="1" relative="1" as="geometry">
            <mxPoint x="-17" y="-44" as="offset" />
          </mxGeometry>
        </mxCell>
        <mxCell id="rmxaecEt271xwn91qUM3-21" value="Аренда Редактор" style="rounded=0;whiteSpace=wrap;html=1;" vertex="1" parent="1">
          <mxGeometry x="1530" y="401" width="120" height="60" as="geometry" />
        </mxCell>
        <mxCell id="rmxaecEt271xwn91qUM3-48" style="edgeStyle=orthogonalEdgeStyle;rounded=0;orthogonalLoop=1;jettySize=auto;html=1;exitX=0.75;exitY=0;exitDx=0;exitDy=0;entryX=1;entryY=0.25;entryDx=0;entryDy=0;" edge="1" parent="1" source="rmxaecEt271xwn91qUM3-22" target="rmxaecEt271xwn91qUM3-3">
          <mxGeometry relative="1" as="geometry" />
        </mxCell>
        <mxCell id="rmxaecEt271xwn91qUM3-49" value="закрыть" style="edgeLabel;html=1;align=center;verticalAlign=middle;resizable=0;points=[];" vertex="1" connectable="0" parent="rmxaecEt271xwn91qUM3-48">
          <mxGeometry x="-0.6372" y="-2" relative="1" as="geometry">
            <mxPoint as="offset" />
          </mxGeometry>
        </mxCell>
        <mxCell id="rmxaecEt271xwn91qUM3-22" value="ПоискЧитателя" style="rounded=0;whiteSpace=wrap;html=1;" vertex="1" parent="1">
          <mxGeometry x="1633" y="267" width="120" height="60" as="geometry" />
        </mxCell>
        <mxCell id="rmxaecEt271xwn91qUM3-38" style="edgeStyle=orthogonalEdgeStyle;rounded=0;orthogonalLoop=1;jettySize=auto;html=1;entryX=0.006;entryY=0.419;entryDx=0;entryDy=0;entryPerimeter=0;" edge="1" parent="1" source="rmxaecEt271xwn91qUM3-5" target="rmxaecEt271xwn91qUM3-2">
          <mxGeometry relative="1" as="geometry">
            <Array as="points">
              <mxPoint x="716" y="297" />
              <mxPoint x="716" y="181" />
            </Array>
          </mxGeometry>
        </mxCell>
        <mxCell id="rmxaecEt271xwn91qUM3-39" value="закрыть" style="edgeLabel;html=1;align=center;verticalAlign=middle;resizable=0;points=[];" vertex="1" connectable="0" parent="rmxaecEt271xwn91qUM3-38">
          <mxGeometry x="-0.4211" y="-1" relative="1" as="geometry">
            <mxPoint as="offset" />
          </mxGeometry>
        </mxCell>
        <mxCell id="rmxaecEt271xwn91qUM3-44" style="edgeStyle=orthogonalEdgeStyle;rounded=0;orthogonalLoop=1;jettySize=auto;html=1;entryX=0.128;entryY=1.035;entryDx=0;entryDy=0;entryPerimeter=0;" edge="1" parent="1" source="rmxaecEt271xwn91qUM3-20" target="rmxaecEt271xwn91qUM3-3">
          <mxGeometry relative="1" as="geometry">
            <Array as="points">
              <mxPoint x="1437" y="344" />
              <mxPoint x="1451" y="344" />
            </Array>
          </mxGeometry>
        </mxCell>
        <mxCell id="rmxaecEt271xwn91qUM3-45" value="закрыть" style="edgeLabel;html=1;align=center;verticalAlign=middle;resizable=0;points=[];" vertex="1" connectable="0" parent="rmxaecEt271xwn91qUM3-44">
          <mxGeometry x="0.3517" y="2" relative="1" as="geometry">
            <mxPoint x="-16" y="59" as="offset" />
          </mxGeometry>
        </mxCell>
        <mxCell id="rmxaecEt271xwn91qUM3-52" value="Text" style="text;html=1;align=center;verticalAlign=middle;resizable=0;points=[];autosize=1;strokeColor=none;fillColor=none;" vertex="1" parent="1">
          <mxGeometry x="1610" y="566" width="40" height="26" as="geometry" />
        </mxCell>
      </root>
    </mxGraphModel>
  </diagram>
</mxfile>
